<?xml version="1.0" encoding="UTF-8"?>
<svg id="Layer_2" data-name="Layer 2" xmlns="http://www.w3.org/2000/svg" viewBox="0 0 62.84 26.68">
  <defs>
    <style>
      .cls-1 {
        fill: #f6a6b6;
      }
    </style>
  </defs>
  <g id="Layer_1-2" data-name="Layer 1">
    <g>
      <path class="cls-1" d="M26.14,23.44l-1.06.17v3.07l1.14-.18c.89-.14,1.51-.85,1.51-1.74,0-.44-.16-.81-.44-1.05-.29-.25-.69-.34-1.14-.27ZM25.86,25.8v-1.56l.34-.05c.22-.03.4,0,.53.12.13.11.2.29.2.52,0,.48-.32.86-.8.94l-.28.04Z"/>
      <polygon class="cls-1" points="29.36 24.81 30.46 24.64 30.46 23.89 29.36 24.06 29.36 23.69 30.6 23.49 30.6 22.73 28.57 23.06 28.57 26.13 30.64 25.8 30.64 25.04 29.36 25.25 29.36 24.81"/>
      <polygon class="cls-1" points="31.25 23.4 32.02 23.28 32.02 25.58 32.8 25.46 32.8 23.15 33.57 23.03 33.57 22.27 31.25 22.63 31.25 23.4"/>
      <path class="cls-1" d="M35.03,22.01l-1.27,2.94-.02.35.74-.12.24-.58,1.05-.17.24.5.71-.11v-.19l-1.31-2.7-.38.06ZM35.06,23.82l.19-.46.19.4-.39.06Z"/>
      <polygon class="cls-1" points="37.44 24.73 38.22 24.6 38.22 21.53 37.44 21.65 37.44 24.73"/>
      <polygon class="cls-1" points="40.01 21.25 39.22 21.37 39.22 24.44 41.21 24.13 41.21 23.37 40.01 23.56 40.01 21.25"/>
      <path class="cls-1" d="M43.13,21.88c-.34-.06-.4-.11-.4-.18,0-.11.16-.19.31-.22.18-.03.33,0,.51.09l.19.1.36-.66-.19-.11c-.3-.17-.6-.22-.96-.17-.59.09-1.01.52-1.01,1.04,0,.47.32.76.96.88.35.07.42.12.42.2,0,.16-.19.27-.36.3-.22.03-.43-.01-.58-.12l-.2-.15-.39.69.17.11c.22.15.51.23.81.23.09,0,.18,0,.27-.02.63-.1,1.07-.56,1.07-1.11,0-.71-.71-.85-.98-.9Z"/>
    </g>
    <g>
      <path class="cls-1" d="M17.84,23.53c-.51,0-1.2-.01-1.84-.32-1.74-.82-2.12-2.25-2.25-4.78-.13-2.36.35-5.09,1.07-9.22l.17-.96c.11-.62.1-1.52-.28-2.01-.16-.2-.36-.32-.6-.33-.89-.08-1.73,1.29-2.87,3.68-.43.91-.96,2.01-1.48,3.11-.51,1.07-1.02,2.13-1.41,2.97-.01.02-.04.08-.07.16-.1.26-.17.41-.22.48-.05-.15-.1-.39-.11-.5-.11-.7-.21-1.58-.3-2.42-.07-.6-.13-1.19-.2-1.7-.07-.54-.11-1.1-.16-1.64-.07-1-.15-2.03-.43-3.05-.14-.35-.3-.62-.84-.56-.34.03-.74.13-.9.65-.5,1.56-1.05,3.22-1.59,4.82-.78,2.33-1.59,4.73-2.27,7.01-.12.43-.26.88-.4,1.33-.29.95-.58,1.94-.82,2.87-.07.28-.04.51.08.66.12.15.32.22.57.2.55-.03.65-.27.77-.71.5-1.82,1.12-3.75,1.71-5.56.31-.95.61-1.93.92-2.98.46-1.52.93-3.09,1.45-4.53l.04-.12c.02-.07.06-.18.1-.3.1.83.21,2.65.29,3.95.04.61.07,1.19.1,1.65.05.86.3,1.74.53,2.48.1.35.34.58.68.67.44.12.97-.06,1.38-.45.33-.31.48-.65.62-.98.1-.23.26-.58.45-1.01.92-2.09,2.99-6.78,3.77-7.88-.02.2-.07.55-.22,1.15-.59,2.46-.96,4.58-1.1,8.15,0,.09,0,.19-.01.31-.06,1.46-.22,5.34,2.93,6.67.72.3,1.35.42,1.87.42.94,0,1.55-.37,1.72-.7.09-.18.1-.33.03-.46-.13-.22-.43-.22-.89-.23Z"/>
      <path class="cls-1" d="M30.88,8.73c.03-.27-.15-.5-.45-.58-.32-.1-.66-.07-1.1.09-1.1.39-1.71,1.16-2.45,2.09-.08.1-.17.25-.26.41,0,.02-.02.03-.03.05.01-.16.03-.31.04-.42v-.06c.05-.33,0-.59-.15-.77-.13-.15-.35-.22-.56-.23-.61-.01-.65.49-.67.73,0,.05,0,.1-.01.13-.21.98-.38,2-.55,2.98-.09.53-.18,1.06-.27,1.59-.06.31-.11.62-.16.93-.1.1-.17.22-.23.32-.03.05-.05.09-.08.13-.93,1.33-1.32,1.78-2.44,2.61-1.28.95-2.57,1.2-3.06.61-.38-.45-.56-1.03-.59-1.81,0-.54.05-.97.15-1.35.06-.1.55-.18.76-.21.17-.03.32-.05.44-.08,2.09-.58,3.8-3.14,3.4-5.06-.12-.59-.48-1.05-1-1.25-.57-.22-1.23-.11-1.81.32-.49.37-.95.83-1.35,1.38-1.07,1.6-1.75,2.98-2.09,5.28-.11.71-.06,1.25-.01,1.77.01.13.02.27.03.4h0c.09.81.47,1.43,1.09,1.81.43.26.98.4,1.58.4s1.27-.13,1.97-.39c1-.38,1.92-1.05,2.77-1.98l-.05.3c-.06.36-.09.76.12.98.06.07.18.15.34.15.02,0,.04,0,.06,0,.59,0,1.03-.38,1.08-.93.08-.93.18-1.62.32-2.24.05-.25.1-.48.14-.7.12-.64.23-1.19.49-1.88.77-1.99,1.78-3.97,3.88-4.87,0,0,.68-.23.73-.62ZM18.27,14.85c.22-.78.63-1.74,1.04-2.42.29-.49.7-.96,1.16-1.35.1-.08.38-.31.6-.31.04,0,.08,0,.12.03.23.12.16.54.16.55-.09.61-.5,1.42-.85,1.89-.66.79-1.21,1.22-1.92,1.51-.15.06-.25.09-.31.1Z"/>
      <path class="cls-1" d="M41.29,18.64c-.23-.16-.5-.02-.85.16-.22.12-.48.25-.75.33-2.25.66-3.38.41-4.53-2.9-.12-.35-.2-.75-.28-1.18-.14-.73-.28-1.48-.68-2.04-.25-.36-.53-.45-.72-.51.09-.14.22-.27.35-.41.07-.07.14-.15.19-.21l.15-.15c.12-.12.25-.24.35-.37.18-.2.36-.39.54-.58.8-.85,1.55-1.65,2.16-2.74.16-.29.36-.66.25-1.01-.06-.19-.2-.33-.42-.43-.65-.29-.92.24-1.06.52-.03.07-.07.13-.1.18-.82,1.26-1.34,1.92-2.29,3.03-.22.26-.38.43-.5.55.12-.7.41-2.13.65-3.33.2-1,.4-1.98.52-2.65.21-1.11.33-2.04.37-2.92.01-.19,0-.65-.25-.92-.12-.12-.28-.18-.45-.17-.53,0-.59.43-.62.66,0,.06-.01.11-.03.19-.03.21-.06.42-.08.64-.05.39-.1.8-.19,1.2-.24,1.11-.42,2.12-.6,3.1-.26,1.45-.51,2.83-.93,4.45-.03.12-.06.24-.08.36-.09.47-.16.81-.65.99-.35.12-.56.47-.53.85.03.37.28.56.75.57l-.61,3.79c-.05.28-.08.68.13.95.14.17.34.26.62.27.79.06.85-.62.88-.98v-.12c.17-1.19.35-2.53.61-3.77.01-.1.04-.2.06-.25.18.03.28.27.42.74l.02.08c.08.27.16.56.24.85.22.77.44,1.57.73,2.29h0c.98,2.38,2.51,3.09,3.99,3.09.65,0,1.28-.14,1.86-.33.87-.29,1.47-.94,1.54-1.41.03-.2-.04-.37-.17-.46Z"/>
      <path class="cls-1" d="M62.54,13.68c-.38-.48-.9-.78-1.74-.99-.98-.23-2.45-.12-3.73.28-.4.13-.7.27-.89.36-.01,0-.02,0-.03.01.01-.06.02-.12.02-.12.28-1.53,1.08-5.36,1.46-6.84.06-.22.09-.44.12-.65.03-.21.06-.4.11-.6.07-.28,0-.46-.08-.56-.11-.15-.29-.24-.54-.26-.42-.02-.71.19-.81.57l-.08.27c-.09.3-.19.61-.24.93-.33,1.92-1.29,4.18-2.4,5.61-.06.08-.13.18-.21.3-.22.34-.6.9-.89.95-.04,0-.1,0-.17-.06-.32-.25-.33-.65-.28-.96.05-.5.29-1.46.5-2.31.15-.61.3-1.19.36-1.57.06-.33.1-.48.15-.63.05-.15.1-.3.15-.64,0-.27-.06-.47-.1-.64-.01-.05-.03-.1-.04-.14-.03-.16-.12-.3-.26-.39-.16-.1-.36-.13-.51-.09-.32.02-.53.23-.57.57-.09.79-.31,1.71-.53,2.68-.23.97-.45,1.96-.56,2.85-.04.06-.07.11-.1.16-.03.05-.05.09-.08.13-.93,1.33-1.32,1.78-2.44,2.61-1.28.95-2.57,1.21-3.06.61-.37-.44-.56-1.04-.59-1.81,0-.54.05-.97.15-1.35.06-.1.55-.18.76-.21.17-.03.32-.05.44-.08,2.09-.58,3.8-3.14,3.4-5.06-.12-.59-.48-1.05-1-1.25-.57-.22-1.23-.11-1.81.32-.49.37-.95.83-1.35,1.38-1.07,1.6-1.75,2.98-2.09,5.28-.04.28-.06.52-.06.76-.08.12-.17.28-.28.46-.37.64-.93,1.6-1.71,2.27-.29.25-.92.57-1.2.49-.2-.05-.4-.5-.4-.8-.06-1.3.23-3.26.91-6.17.65-2.91.99-4.79,1.47-7.69,0-.11.02-.23.04-.36.02-.19.04-.39.06-.59.02-.24-.06-.66-.77-.71-.35-.03-.58.16-.69.58-.27,1.04-.43,1.91-.6,2.83-.11.62-.23,1.25-.39,1.97-.32,1.5-.59,3.01-.87,4.53-.17.89-.29,1.79-.41,2.65-.09.64-.17,1.28-.28,1.92-.1.68.01,1.29.14,1.8h0c.18.66.65,1.15,1.3,1.34.2.06.41.09.62.09.7,0,1.45-.32,2.12-.92.4-.36.84-.96,1.22-1.57.18.46.48.84.9,1.09.43.26.98.4,1.58.4s1.27-.13,1.97-.39c1.26-.49,2.41-1.42,3.43-2.77.1.13.23.24.38.34,1.15.72,1.76.57,2.84-.68.12-.14.33-.41.53-.67,0,0,0,0,0,0-.05.3-.12.65-.18.97l-.02.12c-.03.15-.08.49-.17.54-1.3.78-2.1,1.42-3.12,2.32-.84.74-1.61,1.6-1.58,2.88.02,1.07.64,1.78,1.83,2.09.22.06.44.08.65.08.97,0,1.8-.59,2.34-1.69.61-1.26.77-1.97.98-2.95.08-.36.17-.76.29-1.24l.06-.23c.06-.26.12-.51.21-.56.86-.51,1.98-1.03,3.74-.97,1.09.04,1.49.29,1.75.55.47.45.78.76,1.02.54.28-.23.38-.73-.06-1.3ZM54.29,15.77l-.06.28c-.27,1.31-.42,2.03-.96,3.24-.3.67-.82,1.26-1.29,1.07-.47-.19-.75-.42-.86-.71-.12-.3-.05-.69.2-1.2.41-.82.94-1.29,1.71-1.82l1.26-.87ZM44.87,10.64c.22-.78.63-1.74,1.04-2.42.29-.49.7-.96,1.16-1.35.1-.08.38-.31.6-.31.04,0,.08,0,.12.03.23.12.16.54.16.55-.09.61-.5,1.43-.85,1.89-.46.55-1.04,1.16-1.92,1.51-.15.06-.25.09-.31.1Z"/>
    </g>
  </g>
</svg>